Patient4_TMGait_0pt6_02_right_26_GRF.mot
version=1
nRows=32
nColumns=19
inDegrees=no
endheader
time	F1x	F1y	F1z	M1x	M1y	M1z	F2x	F2y	F2z	M2x	M2y	M2z	EC1x	EC1y	EC1z	EC2x	EC2y	EC2z
31.18	20.6569	724.8465	58.4779	-229.5227	-59.446	790.5892	-17.0633	5.0265	-3.0521	3.1209	6.2175	11.4494	-0.0592	0.0182	-0.0073	-0.0462	0.0165	0.9585
31.1925	17.8058	728.0709	57.7532	-231.2911	-57.8384	789.1695	-11.7172	4.5533	-2.1028	2.6149	4.3613	9.1122	-0.0592	0.0182	-0.0073	-0.0462	0.0165	0.9585
31.205	15.1424	733.0978	57.2367	-233.5152	-56.585	789.83	-7.1585	4.191	-1.2784	2.2013	2.7764	7.1754	-0.0592	0.0182	-0.0073	-0.0462	0.0165	0.9585
31.2175	12.847	739.9499	56.852	-236.1898	-55.6404	792.7152	-3.643	3.9495	-0.64255	1.9051	1.5618	5.7265	-0.0592	0.0182	-0.0073	-0.0462	0.0165	0.9585
31.23	11.0331	748.3124	56.5706	-239.2409	-54.9318	797.4485	-1.2219	3.8337	-0.1946	1.7235	0.72249	4.7902	-0.0592	0.0182	-0.0073	-0.0462	0.0165	0.9585
31.2425	9.7938	757.5592	56.3248	-242.5087	-54.3116	803.256	0.27027	3.7867	0.092037	1.6256	0.19721	4.2439	-0.0592	0.0182	-0.0073	-0.0462	0.0165	0.9585
31.255	9.2547	766.7848	56.1129	-245.7415	-53.6674	809.027	1.0225	3.7657	0.25569	1.5737	-0.083936	3.9856	-0.0592	0.0182	-0.0073	-0.0462	0.0165	0.9585
31.2675	9.5004	774.9178	55.8871	-248.6245	-52.8594	813.5126	1.2565	3.6761	0.33485	1.5134	-0.19662	3.8187	-0.0592	0.0182	-0.0073	-0.0462	0.0165	0.9585
31.28	10.591	780.8374	55.6513	-250.8092	-51.8173	815.4588	1.1554	3.404	0.35984	1.3845	-0.19637	3.5424	-0.0592	0.0182	-0.0073	-0.0462	0.0165	0.9585
31.2925	12.5167	783.5469	55.3715	-251.9707	-50.4795	813.8056	0.87149	2.8203	0.3602	1.1238	-0.1361	2.9354	-0.0592	0.0182	-0.0073	-0.0462	0.0165	0.9585
31.305	15.1963	782.3111	55.0708	-251.8577	-48.8817	807.8198	0.53474	1.7771	0.34809	0.66487	-0.053551	1.7628	-0.0592	0.0182	-0.0073	-0.0462	0.0165	0.9585
31.3175	18.5137	776.8253	54.7253	-250.3531	-47.0419	797.2503	0.22586	0.15929	0.33279	-0.045214	0.019239	-0.13779	-0.0592	0.0182	-0.0073	-0.0462	0.0165	0.9585
31.33	22.3243	767.2794	54.3577	-247.4955	-45.0355	782.4047	0.048041	-2.1085	0.30943	-1.0367	0.050973	-2.8898	-0.0592	0.0182	-0.0073	-0.0462	0.0165	0.9585
31.3425	26.4979	754.3683	53.9869	-243.4878	-42.9339	764.1005	0.056105	-4.9378	0.28208	-2.2764	0.0088519	-6.3791	-0.0592	0.0182	-0.0073	-0.0462	0.0165	0.9585
31.355	30.8938	739.2056	53.7096	-238.6647	-40.8855	743.5971	0.36552	-8.0768	0.24977	-3.6502	-0.15411	-10.3039	-0.0592	0.0182	-0.0073	-0.0462	0.0165	0.9585
31.3675	35.3947	723.173	53.6306	-233.4424	-39.0354	722.4081	1.0452	-10.9327	0.22	-4.9002	-0.47925	-13.9063	-0.0592	0.0182	-0.0073	-0.0462	0.0165	0.9585
31.38	39.8851	707.7385	53.8991	-228.2606	-37.5643	702.1225	2.2136	-12.5272	0.19238	-5.5928	-1.0056	-15.9588	-0.0592	0.0182	-0.0073	-0.0462	0.0165	0.9585
31.3925	44.2578	694.2374	54.619	-223.5292	-36.6006	684.1662	3.9114	-11.3336	0.17541	-5.0577	-1.7531	-14.5163	-0.0592	0.0182	-0.0073	-0.0462	0.0165	0.9585
31.405	48.4037	683.6254	55.8506	-219.5499	-36.2327	669.5738	6.1488	-5.2685	0.16996	-2.3781	-2.7065	-6.9408	-0.0592	0.0182	-0.0073	-0.0462	0.0165	0.9585
31.4175	52.1985	676.2524	57.5276	-216.4429	-36.4342	658.7584	8.7674	8.2869	0.18696	3.5918	-3.7929	10.0863	-0.0592	0.0182	-0.0073	-0.0462	0.0165	0.9585
31.43	55.5099	671.6467	59.4797	-214.0788	-37.0827	651.298	11.4053	32.2272	0.2372	14.1164	-4.8495	40.2286	-0.0592	0.0182	-0.0073	-0.0462	0.0165	0.9585
31.4425	58.1625	668.4372	61.3895	-212.0579	-37.9279	645.877	13.3957	69.1914	0.33627	30.3486	-5.5745	86.8309	-0.0592	0.0182	-0.0073	-0.0462	0.0165	0.9585
31.455	59.993	664.4571	62.8408	-209.7474	-38.6289	640.3887	13.6428	120.6632	0.50302	52.9343	-5.484	151.8027	-0.0592	0.0182	-0.0073	-0.0462	0.0165	0.9585
31.4675	60.8193	657.0473	63.3401	-206.3764	-38.7791	632.2458	10.6351	185.6093	0.73844	81.419	-3.9031	233.8883	-0.0592	0.0182	-0.0073	-0.0462	0.0165	0.9585
31.48	60.5201	643.5063	62.4047	-201.1774	-37.9709	618.7746	2.8127	259.0603	0.99764	113.621	-0.15413	326.8815	-0.0592	0.0182	-0.0073	-0.0462	0.0165	0.9585
31.4925	59.0488	621.6872	59.6868	-193.5633	-35.9032	597.8069	-9.3388	332.0781	0.91821	145.6184	5.9057	419.4702	-0.0592	0.0182	-0.0073	-0.0462	0.0165	0.9585
31.505	56.5107	590.4658	55.0877	-183.2576	-32.4685	568.094	-22.7864	395.3848	-0.65322	173.3116	14.2065	499.6585	-0.0592	0.0182	-0.0073	-0.0462	0.0165	0.9585
31.5175	53.0375	549.8245	48.8682	-170.287	-27.8775	529.4546	-35.059	444.4363	-3.8243	194.6474	23.7728	561.3285	-0.0592	0.0182	-0.0073	-0.0462	0.0165	0.9585
31.53	48.7321	500.5221	41.641	-154.8644	-22.6641	482.4985	-44.7495	479.8316	-8.4478	209.848	33.8067	604.971	-0.0592	0.0182	-0.0073	-0.0462	0.0165	0.9585
31.5425	43.6614	444.0385	34.1757	-137.3828	-17.4994	428.5799	-51.5857	505.6364	-13.9838	220.6846	43.5395	635.7025	-0.0592	0.0182	-0.0073	-0.0462	0.0165	0.9585
31.555	37.872	382.5612	27.1165	-118.4411	-12.9365	369.7628	-55.8614	527.1778	-19.8254	229.4946	52.3859	660.2742	-0.0592	0.0182	-0.0073	-0.0462	0.0165	0.9585
31.5675	31.386	318.8212	20.9204	-98.8136	-9.3637	308.6628	-58.1691	549.1245	-25.4499	238.3244	59.9774	684.6222	-0.0592	0.0182	-0.0073	-0.0462	0.0165	0.9585
